<?xml version="1.0" encoding="utf-8"?>
<!-- Generator: Adobe Illustrator 16.0.3, SVG Export Plug-In . SVG Version: 6.00 Build 0)  -->
<svg version="1.2" baseProfile="tiny" id="Capa_1" xmlns="http://www.w3.org/2000/svg" xmlns:xlink="http://www.w3.org/1999/xlink"
	 x="0px" y="0px" width="16px" height="16px" viewBox="0 0 16 16" xml:space="preserve">
<g>
	<g>
		<path stroke="#FFFFFF" stroke-width="0.1" stroke-miterlimit="10" d="M13.386,5.603v0.004l-0.07-0.208H3.034L0.886,11.99
			c0,0.387,0.306,0.7,0.682,0.7h13.348c0.377,0,0.682-0.313,0.682-0.7L13.386,5.603z"/>
		<path stroke="#FFFFFF" stroke-width="0.1" stroke-miterlimit="10" d="M15.038,11.944H1.444c-0.205,0-0.384,0.149-0.481,0.37
			l0.707,2.068h13.067l0.782-2.068C15.422,12.094,15.243,11.944,15.038,11.944z"/>
	</g>
	<path stroke="#FFFFFF" stroke-width="0.1" stroke-miterlimit="10" d="M9.651,7.76"/>
	<path stroke="#FFFFFF" stroke-width="0.1" stroke-miterlimit="10" d="M9.651,8.117"/>
	<ellipse stroke="#FFFFFF" stroke-width="0.1" stroke-miterlimit="10" cx="9.651" cy="7.872" rx="0.144" ry="0.183"/>
	<ellipse stroke="#FFFFFF" stroke-width="0.1" stroke-miterlimit="10" cx="9.651" cy="8.86" rx="3.162" ry="2.314"/>
	<ellipse stroke="#FFFFFF" stroke-width="0.1" stroke-miterlimit="10" cx="9.652" cy="8.61" rx="2.674" ry="1.957"/>
	<ellipse stroke="#FFFFFF" stroke-width="0.1" stroke-miterlimit="10" cx="9.71" cy="8.452" rx="2.251" ry="1.609"/>
	<ellipse stroke="#FFFFFF" stroke-width="0.1" stroke-miterlimit="10" cx="9.71" cy="8.196" rx="1.894" ry="1.353"/>
	<ellipse stroke="#FFFFFF" stroke-width="0.1" stroke-miterlimit="10" cx="9.71" cy="7.935" rx="1.529" ry="1.092"/>
	<ellipse stroke="#FFFFFF" stroke-width="0.1" stroke-miterlimit="10" cx="9.71" cy="7.704" rx="1.017" ry="0.799"/>
	<g>
		<path stroke="#FFFFFF" stroke-width="0.1" stroke-miterlimit="10" d="M10.571,2.995h-0.034c0.007-0.027,0.011-0.055,0.011-0.083
			c0-0.304-0.37-0.551-0.826-0.551c-0.457,0-0.826,0.247-0.826,0.551c0,0.028,0.004,0.056,0.01,0.083H8.829v4.566h0.02
			c-0.013,0.039-0.02,0.08-0.02,0.121c0,0.32,0.39,0.581,0.871,0.581c0.48,0,0.871-0.26,0.871-0.581c0-0.042-0.007-0.082-0.02-0.121
			h0.02V2.995z"/>
		<rect x="9.318" y="2.5" stroke="#FFFFFF" stroke-width="0.1" stroke-miterlimit="10" width="0.807" height="5.711"/>
	</g>
	
		<ellipse fill="#ED130A" stroke="#000000" stroke-width="0.1" stroke-miterlimit="10" cx="9.664" cy="3.292" rx="1.826" ry="1.675"/>
	<g>
		<ellipse stroke="#FFFFFF" stroke-width="0.1" stroke-miterlimit="10" cx="4.518" cy="8.279" rx="0.709" ry="0.473"/>
		<ellipse stroke="#FFFFFF" stroke-width="0.1" stroke-miterlimit="10" cx="4.518" cy="8.127" rx="0.709" ry="0.473"/>
		<ellipse stroke="#FFFFFF" stroke-width="0.1" stroke-miterlimit="10" cx="3.424" cy="9.514" rx="0.71" ry="0.475"/>
		<ellipse stroke="#FFFFFF" stroke-width="0.1" stroke-miterlimit="10" cx="3.424" cy="9.363" rx="0.71" ry="0.473"/>
		<ellipse stroke="#FFFFFF" stroke-width="0.1" stroke-miterlimit="10" cx="5.1" cy="9.625" rx="0.71" ry="0.473"/>
		<ellipse stroke="#FFFFFF" stroke-width="0.1" stroke-miterlimit="10" cx="5.1" cy="9.474" rx="0.71" ry="0.474"/>
	</g>
</g>
</svg>
