<?xml version="1.0" encoding="utf-8"?>
<!-- Generator: Adobe Illustrator 16.0.3, SVG Export Plug-In . SVG Version: 6.00 Build 0)  -->
<svg version="1.2" baseProfile="tiny" id="Capa_1" xmlns="http://www.w3.org/2000/svg" xmlns:xlink="http://www.w3.org/1999/xlink"
	 x="0px" y="0px" width="48px" height="48px" viewBox="0 0 48 48" xml:space="preserve">
<g>
	<g>
		<path stroke="#FFFFFF" stroke-width="0.2" stroke-miterlimit="10" d="M39.696,14.392v0.013l-0.215-0.635H8.098L1.539,33.89
			c0,1.181,0.934,2.138,2.081,2.138h40.744c1.149,0,2.077-0.957,2.077-2.138L39.696,14.392z"/>
		<path stroke="#FFFFFF" stroke-width="0.2" stroke-miterlimit="10" d="M44.737,33.75H3.244c-0.625,0-1.17,0.457-1.47,1.129
			l2.16,6.313H43.82l2.389-6.313C45.912,34.207,45.366,33.75,44.737,33.75z"/>
	</g>
	<path stroke="#FFFFFF" stroke-width="0.2" stroke-miterlimit="10" d="M28.296,20.977"/>
	<path stroke="#FFFFFF" stroke-width="0.2" stroke-miterlimit="10" d="M28.296,22.067"/>
	<ellipse stroke="#FFFFFF" stroke-width="0.2" stroke-miterlimit="10" cx="28.295" cy="21.318" rx="0.438" ry="0.559"/>
	<ellipse stroke="#FFFFFF" stroke-width="0.2" stroke-miterlimit="10" cx="28.297" cy="24.334" rx="9.652" ry="7.065"/>
	<path stroke="#FFFFFF" stroke-width="0.2" stroke-miterlimit="10" d="M36.462,23.571c0,3.302-3.654,5.974-8.164,5.974
		c-4.506,0-8.16-2.672-8.16-5.974c0-3.299,3.654-5.974,8.16-5.974C32.808,17.597,36.462,20.272,36.462,23.571z"/>
	<path stroke="#FFFFFF" stroke-width="0.2" stroke-miterlimit="10" d="M35.351,23.086c0,2.711-3.078,4.912-6.876,4.912
		c-3.795,0-6.87-2.201-6.87-4.912s3.075-4.909,6.87-4.909C32.272,18.177,35.351,20.375,35.351,23.086z"/>
	<ellipse stroke="#FFFFFF" stroke-width="0.2" stroke-miterlimit="10" cx="28.475" cy="22.306" rx="5.781" ry="4.129"/>
	<ellipse stroke="#FFFFFF" stroke-width="0.2" stroke-miterlimit="10" cx="28.477" cy="21.511" rx="4.666" ry="3.333"/>
	<ellipse stroke="#FFFFFF" stroke-width="0.2" stroke-miterlimit="10" cx="28.474" cy="20.807" rx="3.104" ry="2.436"/>
	<g>
		<path stroke="#FFFFFF" stroke-width="0.2" stroke-miterlimit="10" d="M31.104,6.429H31c0.02-0.083,0.031-0.168,0.031-0.255
			c0-0.928-1.128-1.681-2.521-1.681c-1.396,0-2.521,0.753-2.521,1.681c0,0.086,0.013,0.172,0.03,0.255h-0.232v13.939h0.059
			c-0.038,0.12-0.059,0.243-0.059,0.37c0,0.977,1.188,1.772,2.658,1.772c1.468,0,2.659-0.795,2.659-1.772
			c0-0.127-0.021-0.25-0.062-0.37h0.062V6.429z"/>
		<rect x="27.278" y="4.919" stroke="#FFFFFF" stroke-width="0.2" stroke-miterlimit="10" width="2.466" height="17.434"/>
	</g>
	
		<ellipse fill="#ED130A" stroke="#000000" stroke-width="0.2" stroke-miterlimit="10" cx="28.335" cy="7.339" rx="5.573" ry="5.112"/>
	<g>
		<path stroke="#FFFFFF" stroke-width="0.2" stroke-miterlimit="10" d="M14.792,22.561c0,0.797-0.968,1.442-2.164,1.442
			c-1.199,0-2.167-0.646-2.167-1.442c0-0.802,0.968-1.447,2.167-1.447C13.824,21.114,14.792,21.759,14.792,22.561z"/>
		<path stroke="#FFFFFF" stroke-width="0.2" stroke-miterlimit="10" d="M14.792,22.097c0,0.797-0.968,1.445-2.164,1.445
			c-1.199,0-2.167-0.647-2.167-1.445c0-0.798,0.968-1.445,2.167-1.445C13.824,20.652,14.792,21.298,14.792,22.097z"/>
		<path stroke="#FFFFFF" stroke-width="0.2" stroke-miterlimit="10" d="M11.454,26.33c0,0.799-0.968,1.448-2.167,1.448
			c-1.196,0-2.167-0.649-2.167-1.448c0-0.796,0.97-1.445,2.167-1.445C10.485,24.885,11.454,25.534,11.454,26.33z"/>
		<path stroke="#FFFFFF" stroke-width="0.2" stroke-miterlimit="10" d="M11.454,25.872c0,0.796-0.968,1.441-2.167,1.441
			c-1.196,0-2.167-0.646-2.167-1.441c0-0.801,0.97-1.449,2.167-1.449C10.485,24.423,11.454,25.071,11.454,25.872z"/>
		<path stroke="#FFFFFF" stroke-width="0.2" stroke-miterlimit="10" d="M16.569,26.668c0,0.802-0.968,1.443-2.167,1.443
			c-1.196,0-2.167-0.642-2.167-1.443c0-0.796,0.971-1.445,2.167-1.445C15.601,25.223,16.569,25.872,16.569,26.668z"/>
		<ellipse stroke="#FFFFFF" stroke-width="0.2" stroke-miterlimit="10" cx="14.402" cy="26.209" rx="2.167" ry="1.442"/>
	</g>
</g>
</svg>
