<?xml version="1.0" encoding="utf-8"?>
<!-- Generator: Adobe Illustrator 16.0.3, SVG Export Plug-In . SVG Version: 6.00 Build 0)  -->
<svg version="1.2" baseProfile="tiny" id="Capa_1" xmlns="http://www.w3.org/2000/svg" xmlns:xlink="http://www.w3.org/1999/xlink"
	 x="0px" y="0px" width="160px" height="160px" viewBox="0 0 160 160" xml:space="preserve">
<g>
	<g>
		<path stroke="#FFFFFF" stroke-miterlimit="10" d="M131.717,52.199v0.042l-0.693-2.05H29.833L8.686,115.063
			c0,3.809,3.011,6.895,6.71,6.895h131.372c3.706,0,6.697-3.086,6.697-6.895L131.717,52.199z"/>
		<path stroke="#FFFFFF" stroke-miterlimit="10" d="M147.97,114.614H14.183c-2.017,0-3.771,1.474-4.741,3.64l6.964,20.354h128.607
			l7.701-20.354C151.759,116.088,149.998,114.614,147.97,114.614z"/>
	</g>
	<path stroke="#FFFFFF" stroke-miterlimit="10" d="M94.959,73.428"/>
	<path stroke="#FFFFFF" stroke-miterlimit="10" d="M94.959,76.946"/>
	<path stroke="#FFFFFF" stroke-miterlimit="10" d="M96.368,74.529c0-0.995-0.636-1.801-1.409-1.801
		c-0.778,0-1.418,0.806-1.418,1.801c0,1.001,0.64,1.808,1.418,1.808C95.732,76.336,96.368,75.53,96.368,74.529z"/>
	<path stroke="#FFFFFF" stroke-miterlimit="10" d="M126.08,84.255c0,12.578-13.93,22.781-31.121,22.781
		c-17.186,0-31.119-10.203-31.119-22.781c0-12.573,13.933-22.772,31.119-22.772C112.15,61.482,126.08,71.682,126.08,84.255z"/>
	<path stroke="#FFFFFF" stroke-miterlimit="10" d="M121.288,81.793c0,10.648-11.783,19.263-26.323,19.263
		c-14.529,0-26.311-8.614-26.311-19.263c0-10.636,11.782-19.261,26.311-19.261C109.505,62.532,121.288,71.157,121.288,81.793z"/>
	<path stroke="#FFFFFF" stroke-miterlimit="10" d="M117.705,80.23c0,8.741-9.925,15.839-22.171,15.839
		c-12.237,0-22.152-7.098-22.152-15.839s9.915-15.829,22.152-15.829C107.78,64.402,117.705,71.489,117.705,80.23z"/>
	<path stroke="#FFFFFF" stroke-miterlimit="10" d="M114.175,77.713c0,7.346-8.348,13.314-18.641,13.314
		c-10.292,0-18.636-5.968-18.636-13.314c0-7.35,8.344-13.312,18.636-13.312C105.827,64.402,114.175,70.364,114.175,77.713z"/>
	<path stroke="#FFFFFF" stroke-miterlimit="10" d="M110.588,75.153c0,5.94-6.74,10.746-15.054,10.746
		c-8.304,0-15.037-4.806-15.037-10.746c0-5.941,6.733-10.751,15.037-10.751C103.848,64.402,110.588,69.212,110.588,75.153z"/>
	<path stroke="#FFFFFF" stroke-miterlimit="10" d="M105.541,72.881c0,4.344-4.483,7.853-10.007,7.853
		c-5.526,0-10.009-3.509-10.009-7.853c0-4.344,4.482-7.87,10.009-7.87C101.058,65.011,105.541,68.537,105.541,72.881z"/>
	<g>
		<path stroke="#FFFFFF" stroke-miterlimit="10" d="M104.014,26.523h-0.337c0.063-0.268,0.102-0.542,0.102-0.822
			c0-2.993-3.637-5.421-8.128-5.421c-4.499,0-8.128,2.428-8.128,5.421c0,0.279,0.039,0.554,0.096,0.822h-0.749v44.944h0.188
			c-0.122,0.386-0.188,0.784-0.188,1.194c0,3.151,3.829,5.715,8.57,5.715c4.733,0,8.574-2.563,8.574-5.715
			c0-0.41-0.069-0.808-0.198-1.194h0.198V26.523z"/>
		<rect x="91.678" y="21.655" stroke="#FFFFFF" stroke-miterlimit="10" width="7.951" height="56.213"/>
	</g>
	<path fill="#ED130A" stroke="#000000" stroke-miterlimit="10" d="M113.055,29.456c0,9.107-8.042,16.484-17.967,16.484
		c-9.932,0-17.976-7.377-17.976-16.484c0-9.097,8.044-16.479,17.976-16.479C105.013,12.978,113.055,20.359,113.055,29.456z"/>
	<g>
		<path stroke="#FFFFFF" stroke-miterlimit="10" d="M51.417,78.537c0,2.57-3.122,4.654-6.976,4.654
			c-3.865,0-6.987-2.084-6.987-4.654c0-2.586,3.122-4.664,6.987-4.664C48.295,73.873,51.417,75.951,51.417,78.537z"/>
		<path stroke="#FFFFFF" stroke-miterlimit="10" d="M51.417,77.041c0,2.57-3.122,4.657-6.976,4.657
			c-3.865,0-6.987-2.086-6.987-4.657c0-2.575,3.122-4.659,6.987-4.659C48.295,72.382,51.417,74.465,51.417,77.041z"/>
		<path stroke="#FFFFFF" stroke-miterlimit="10" d="M40.653,90.69c0,2.575-3.122,4.67-6.987,4.67c-3.857,0-6.986-2.095-6.986-4.67
			c0-2.566,3.129-4.66,6.986-4.66C37.531,86.03,40.653,88.124,40.653,90.69z"/>
		<path stroke="#FFFFFF" stroke-miterlimit="10" d="M40.653,89.212c0,2.566-3.122,4.649-6.987,4.649
			c-3.857,0-6.986-2.083-6.986-4.649c0-2.581,3.129-4.668,6.986-4.668C37.531,84.544,40.653,86.631,40.653,89.212z"/>
		<path stroke="#FFFFFF" stroke-miterlimit="10" d="M57.148,91.778c0,2.587-3.123,4.655-6.987,4.655
			c-3.855,0-6.988-2.068-6.988-4.655c0-2.566,3.132-4.658,6.988-4.658C54.026,87.12,57.148,89.212,57.148,91.778z"/>
		<path stroke="#FFFFFF" stroke-miterlimit="10" d="M57.148,90.3c0,2.566-3.123,4.651-6.987,4.651c-3.855,0-6.988-2.085-6.988-4.651
			c0-2.569,3.132-4.661,6.988-4.661C54.026,85.639,57.148,87.73,57.148,90.3z"/>
	</g>
</g>
</svg>
