<?xml version="1.0" encoding="utf-8"?>
<!-- Generator: Adobe Illustrator 16.0.3, SVG Export Plug-In . SVG Version: 6.00 Build 0)  -->
<svg version="1.2" baseProfile="tiny" id="Capa_1" xmlns="http://www.w3.org/2000/svg" xmlns:xlink="http://www.w3.org/1999/xlink"
	 x="0px" y="0px" width="32px" height="32px" viewBox="0 0 32 32" xml:space="preserve">
<g>
	<g>
		<path stroke="#FFFFFF" stroke-width="0.2" stroke-miterlimit="10" d="M26.287,9.994v0.008l-0.142-0.416H5.589L1.293,22.765
			c0,0.773,0.611,1.4,1.363,1.4h26.688c0.754,0,1.362-0.627,1.362-1.4L26.287,9.994z"/>
		<path stroke="#FFFFFF" stroke-width="0.2" stroke-miterlimit="10" d="M29.589,22.673H2.41c-0.41,0-0.767,0.299-0.963,0.74
			l1.415,4.135h26.127l1.564-4.135C30.358,22.972,30.001,22.673,29.589,22.673z"/>
	</g>
	<path stroke="#FFFFFF" stroke-width="0.2" stroke-miterlimit="10" d="M18.819,14.307"/>
	<path stroke="#FFFFFF" stroke-width="0.2" stroke-miterlimit="10" d="M18.819,15.021"/>
	<ellipse stroke="#FFFFFF" stroke-width="0.2" stroke-miterlimit="10" cx="18.819" cy="14.53" rx="0.287" ry="0.366"/>
	<ellipse stroke="#FFFFFF" stroke-width="0.2" stroke-miterlimit="10" cx="18.82" cy="16.506" rx="6.322" ry="4.627"/>
	<ellipse stroke="#FFFFFF" stroke-width="0.2" stroke-miterlimit="10" cx="18.822" cy="16.006" rx="5.346" ry="3.913"/>
	<ellipse stroke="#FFFFFF" stroke-width="0.2" stroke-miterlimit="10" cx="18.938" cy="15.688" rx="4.502" ry="3.219"/>
	<ellipse stroke="#FFFFFF" stroke-width="0.2" stroke-miterlimit="10" cx="18.937" cy="15.177" rx="3.786" ry="2.705"/>
	<ellipse stroke="#FFFFFF" stroke-width="0.2" stroke-miterlimit="10" cx="18.938" cy="14.657" rx="3.056" ry="2.184"/>
	<ellipse stroke="#FFFFFF" stroke-width="0.2" stroke-miterlimit="10" cx="18.937" cy="14.195" rx="2.033" ry="1.595"/>
	<g>
		<path stroke="#FFFFFF" stroke-width="0.2" stroke-miterlimit="10" d="M20.659,4.778h-0.068c0.013-0.054,0.021-0.11,0.021-0.167
			c0-0.608-0.739-1.101-1.651-1.101c-0.914,0-1.651,0.493-1.651,1.101c0,0.057,0.008,0.113,0.02,0.167h-0.152v9.131h0.039
			c-0.025,0.078-0.039,0.159-0.039,0.242c0,0.64,0.778,1.161,1.741,1.161c0.962,0,1.742-0.521,1.742-1.161
			c0-0.083-0.014-0.164-0.04-0.242h0.04V4.778z"/>
		<rect x="18.153" y="3.789" stroke="#FFFFFF" stroke-width="0.2" stroke-miterlimit="10" width="1.614" height="11.419"/>
	</g>
	
		<ellipse fill="#ED130A" stroke="#000000" stroke-width="0.2" stroke-miterlimit="10" cx="18.845" cy="5.374" rx="3.651" ry="3.349"/>
	<g>
		<path stroke="#FFFFFF" stroke-width="0.2" stroke-miterlimit="10" d="M9.974,15.344c0,0.522-0.634,0.945-1.417,0.945
			c-0.785,0-1.419-0.423-1.419-0.945c0-0.525,0.634-0.947,1.419-0.947C9.34,14.397,9.974,14.819,9.974,15.344z"/>
		<ellipse stroke="#FFFFFF" stroke-width="0.2" stroke-miterlimit="10" cx="8.556" cy="15.04" rx="1.418" ry="0.947"/>
		<ellipse stroke="#FFFFFF" stroke-width="0.2" stroke-miterlimit="10" cx="6.368" cy="17.813" rx="1.419" ry="0.949"/>
		<ellipse stroke="#FFFFFF" stroke-width="0.2" stroke-miterlimit="10" cx="6.368" cy="17.513" rx="1.419" ry="0.945"/>
		<path stroke="#FFFFFF" stroke-width="0.2" stroke-miterlimit="10" d="M11.138,18.034c0,0.525-0.634,0.945-1.419,0.945
			c-0.783,0-1.419-0.42-1.419-0.945c0-0.521,0.636-0.946,1.419-0.946C10.504,17.088,11.138,17.513,11.138,18.034z"/>
		<ellipse stroke="#FFFFFF" stroke-width="0.2" stroke-miterlimit="10" cx="9.719" cy="17.733" rx="1.419" ry="0.945"/>
	</g>
</g>
</svg>
