<?xml version="1.0" encoding="utf-8"?>
<!-- Generator: Adobe Illustrator 16.0.3, SVG Export Plug-In . SVG Version: 6.00 Build 0)  -->
<svg version="1.2" baseProfile="tiny" id="Capa_1" xmlns="http://www.w3.org/2000/svg" xmlns:xlink="http://www.w3.org/1999/xlink"
	 x="0px" y="0px" width="160px" height="160px" viewBox="0 0 160 160" xml:space="preserve">
<g>
	<g>
		<path fill="#FFFFFF" stroke="#000000" stroke-width="2" stroke-miterlimit="10" d="M131.713,50.125l-0.005,0.047l-0.69-2.056
			H29.485L8.268,113.208c0,3.817,3.014,6.913,6.731,6.913h131.814c3.717,0,6.73-3.096,6.73-6.913L131.713,50.125z"/>
		<path fill="#FFFFFF" stroke="#000000" stroke-width="2" stroke-miterlimit="10" d="M148.026,112.749H13.786
			c-2.028,0-3.795,1.472-4.754,3.657l6.975,20.421h129.046l7.728-20.422C151.821,114.221,150.054,112.749,148.026,112.749z"/>
	</g>
	<path fill="#FFFFFF" stroke="#000000" stroke-width="2" stroke-miterlimit="10" d="M94.833,71.429"/>
	<path fill="#FFFFFF" stroke="#000000" stroke-width="2" stroke-miterlimit="10" d="M94.833,74.954"/>
	
		<ellipse fill="#FFFFFF" stroke="#000000" stroke-width="2" stroke-miterlimit="10" cx="94.833" cy="72.534" rx="1.418" ry="1.807"/>
	
		<ellipse fill="#FFFFFF" stroke="#000000" stroke-width="2" stroke-miterlimit="10" cx="94.833" cy="82.296" rx="31.227" ry="22.854"/>
	<ellipse fill="#FFFFFF" stroke="#000000" stroke-miterlimit="10" cx="94.838" cy="79.825" rx="26.405" ry="19.325"/>
	<ellipse fill="#FFFFFF" stroke="#000000" stroke-miterlimit="10" cx="95.413" cy="78.259" rx="22.238" ry="15.892"/>
	<ellipse fill="#FFFFFF" stroke="#000000" stroke-miterlimit="10" cx="95.413" cy="75.731" rx="18.7" ry="13.362"/>
	
		<ellipse fill="#FFFFFF" stroke="#000000" stroke-width="0.5" stroke-miterlimit="10" cx="95.413" cy="73.157" rx="15.098" ry="10.789"/>
	
		<ellipse fill="#FFFFFF" stroke="#000000" stroke-width="0.5" stroke-miterlimit="10" cx="95.412" cy="70.874" rx="10.039" ry="7.892"/>
	<g>
		<path fill="#FFFFFF" stroke="#000000" stroke-width="0.75" stroke-miterlimit="10" d="M103.913,24.366h-0.333
			c0.061-0.27,0.102-0.543,0.102-0.824c0-3.005-3.652-5.441-8.16-5.441c-4.507,0-8.16,2.436-8.16,5.441
			c0,0.28,0.042,0.554,0.104,0.824h-0.756v45.097h0.19c-0.122,0.385-0.19,0.784-0.19,1.193c0,3.168,3.853,5.735,8.603,5.735
			c4.751,0,8.602-2.567,8.602-5.735c0-0.41-0.068-0.808-0.19-1.193h0.19V24.366z"/>
		
			<rect x="91.537" y="19.48" fill="#FFFFFF" stroke="#000000" stroke-width="0.75" stroke-miterlimit="10" width="7.969" height="56.4"/>
	</g>
	
		<ellipse fill="#ED130A" stroke="#000000" stroke-width="2" stroke-miterlimit="10" cx="94.957" cy="27.312" rx="18.034" ry="16.538"/>
	<g>
		
			<ellipse fill="#FFFFFF" stroke="#000000" stroke-width="0.5" stroke-miterlimit="10" cx="44.137" cy="76.549" rx="7.011" ry="4.673"/>
		
			<ellipse fill="#FFFFFF" stroke="#000000" stroke-width="0.5" stroke-miterlimit="10" cx="44.137" cy="75.054" rx="7.011" ry="4.675"/>
		
			<ellipse fill="#FFFFFF" stroke="#000000" stroke-width="0.5" stroke-miterlimit="10" cx="33.333" cy="88.753" rx="7.011" ry="4.673"/>
		
			<ellipse fill="#FFFFFF" stroke="#000000" stroke-width="0.5" stroke-miterlimit="10" cx="33.333" cy="87.258" rx="7.011" ry="4.675"/>
		
			<ellipse fill="#FFFFFF" stroke="#000000" stroke-width="0.5" stroke-miterlimit="10" cx="49.884" cy="89.845" rx="7.011" ry="4.673"/>
		
			<ellipse fill="#FFFFFF" stroke="#000000" stroke-width="0.5" stroke-miterlimit="10" cx="49.884" cy="88.35" rx="7.011" ry="4.675"/>
	</g>
</g>
</svg>
